<mxfile host="app.diagrams.net" modified="2023-10-24T07:16:45.625Z" agent="Mozilla/5.0 (X11; Linux x86_64) AppleWebKit/537.36 (KHTML, like Gecko) Chrome/118.0.0.0 Safari/537.36" etag="BjsGKa0GRByqBQx_7Sk2" version="22.0.6" type="github">
  <diagram name="Page-1" id="qo0XNnkOASs_RlDREXJG">
    <mxGraphModel dx="1956" dy="884" grid="1" gridSize="10" guides="1" tooltips="1" connect="1" arrows="1" fold="1" page="1" pageScale="1" pageWidth="850" pageHeight="1100" math="0" shadow="0">
      <root>
        <mxCell id="0" />
        <mxCell id="1" parent="0" />
        <mxCell id="Sn1ewvtp5F0sCQ9_cXQ1-5" value="" style="edgeStyle=orthogonalEdgeStyle;rounded=0;orthogonalLoop=1;jettySize=auto;html=1;" edge="1" parent="1" source="Sn1ewvtp5F0sCQ9_cXQ1-2" target="Sn1ewvtp5F0sCQ9_cXQ1-4">
          <mxGeometry relative="1" as="geometry" />
        </mxCell>
        <mxCell id="Sn1ewvtp5F0sCQ9_cXQ1-2" value="&lt;b&gt;START&lt;/b&gt;" style="rounded=1;whiteSpace=wrap;html=1;fillColor=#ffd6ff;arcSize=50;" vertex="1" parent="1">
          <mxGeometry x="365" y="50" width="120" height="60" as="geometry" />
        </mxCell>
        <mxCell id="Sn1ewvtp5F0sCQ9_cXQ1-3" value="&lt;b&gt;END&lt;br&gt;&lt;/b&gt;" style="rounded=1;whiteSpace=wrap;html=1;fillColor=#ffd6ff;arcSize=50;" vertex="1" parent="1">
          <mxGeometry x="360" y="890" width="120" height="60" as="geometry" />
        </mxCell>
        <mxCell id="Sn1ewvtp5F0sCQ9_cXQ1-7" value="" style="edgeStyle=orthogonalEdgeStyle;rounded=0;orthogonalLoop=1;jettySize=auto;html=1;" edge="1" parent="1" source="Sn1ewvtp5F0sCQ9_cXQ1-4" target="Sn1ewvtp5F0sCQ9_cXQ1-6">
          <mxGeometry relative="1" as="geometry" />
        </mxCell>
        <mxCell id="Sn1ewvtp5F0sCQ9_cXQ1-4" value="&lt;b&gt;OUTPUT&lt;/b&gt;&lt;br&gt;Selamat Datang di Aplikasi Screening Kesehatan" style="shape=parallelogram;perimeter=parallelogramPerimeter;whiteSpace=wrap;html=1;fixedSize=1;fillColor=#e7c6ff;" vertex="1" parent="1">
          <mxGeometry x="365" y="150" width="120" height="60" as="geometry" />
        </mxCell>
        <mxCell id="Sn1ewvtp5F0sCQ9_cXQ1-9" value="" style="edgeStyle=orthogonalEdgeStyle;rounded=0;orthogonalLoop=1;jettySize=auto;html=1;" edge="1" parent="1" source="Sn1ewvtp5F0sCQ9_cXQ1-6" target="Sn1ewvtp5F0sCQ9_cXQ1-8">
          <mxGeometry relative="1" as="geometry" />
        </mxCell>
        <mxCell id="Sn1ewvtp5F0sCQ9_cXQ1-6" value="&lt;b&gt;OUTPUT&lt;/b&gt;&lt;br&gt;&lt;div style=&quot;text-align: left;&quot;&gt;&lt;span style=&quot;background-color: initial;&quot;&gt;Menu:&lt;/span&gt;&lt;/div&gt;&lt;div style=&quot;text-align: left;&quot;&gt;&lt;span style=&quot;background-color: initial;&quot;&gt;[1] Register&lt;/span&gt;&lt;/div&gt;&lt;div style=&quot;text-align: left;&quot;&gt;&lt;span style=&quot;background-color: initial;&quot;&gt;[2] Login&lt;/span&gt;&lt;/div&gt;&lt;div style=&quot;text-align: left;&quot;&gt;&lt;span style=&quot;background-color: initial;&quot;&gt;[3] Keluar&lt;/span&gt;&lt;/div&gt;" style="shape=parallelogram;perimeter=parallelogramPerimeter;whiteSpace=wrap;html=1;fixedSize=1;fillColor=#e7c6ff;" vertex="1" parent="1">
          <mxGeometry x="345" y="250" width="160" height="80" as="geometry" />
        </mxCell>
        <mxCell id="Sn1ewvtp5F0sCQ9_cXQ1-8" value="&lt;b&gt;INPUT&lt;/b&gt;&lt;br&gt;pilihan" style="shape=parallelogram;perimeter=parallelogramPerimeter;whiteSpace=wrap;html=1;fixedSize=1;fillColor=#c8b6ff;" vertex="1" parent="1">
          <mxGeometry x="365" y="380" width="120" height="60" as="geometry" />
        </mxCell>
      </root>
    </mxGraphModel>
  </diagram>
</mxfile>
